<mxfile host="app.diagrams.net" modified="2021-04-16T07:19:15.567Z" agent="5.0 (Windows NT 10.0; Win64; x64) AppleWebKit/537.36 (KHTML, like Gecko) Chrome/89.0.4389.114 Safari/537.36" etag="-WFizOvJwQzHrzCDXzMC" version="14.6.0" type="github">
  <diagram id="GatzeqCav2dWmPbYNhF1" name="Page-1">
    <mxGraphModel dx="1422" dy="762" grid="1" gridSize="10" guides="1" tooltips="1" connect="1" arrows="1" fold="1" page="1" pageScale="1" pageWidth="827" pageHeight="1169" math="0" shadow="0">
      <root>
        <mxCell id="0" />
        <mxCell id="1" parent="0" />
        <mxCell id="0xJOyOxBKtc-3IhlMfEm-8" value="" style="edgeStyle=orthogonalEdgeStyle;rounded=0;orthogonalLoop=1;jettySize=auto;html=1;" edge="1" parent="1" source="0xJOyOxBKtc-3IhlMfEm-1" target="0xJOyOxBKtc-3IhlMfEm-2">
          <mxGeometry relative="1" as="geometry" />
        </mxCell>
        <mxCell id="0xJOyOxBKtc-3IhlMfEm-1" value="start" style="ellipse;whiteSpace=wrap;html=1;" vertex="1" parent="1">
          <mxGeometry x="335" y="80" width="90" height="60" as="geometry" />
        </mxCell>
        <mxCell id="0xJOyOxBKtc-3IhlMfEm-9" value="" style="edgeStyle=orthogonalEdgeStyle;rounded=0;orthogonalLoop=1;jettySize=auto;html=1;" edge="1" parent="1" source="0xJOyOxBKtc-3IhlMfEm-2" target="0xJOyOxBKtc-3IhlMfEm-3">
          <mxGeometry relative="1" as="geometry" />
        </mxCell>
        <mxCell id="0xJOyOxBKtc-3IhlMfEm-2" value="纪元上传文件" style="rounded=0;whiteSpace=wrap;html=1;" vertex="1" parent="1">
          <mxGeometry x="320" y="200" width="120" height="60" as="geometry" />
        </mxCell>
        <mxCell id="0xJOyOxBKtc-3IhlMfEm-10" value="" style="edgeStyle=orthogonalEdgeStyle;rounded=0;orthogonalLoop=1;jettySize=auto;html=1;" edge="1" parent="1" source="0xJOyOxBKtc-3IhlMfEm-3" target="0xJOyOxBKtc-3IhlMfEm-4">
          <mxGeometry relative="1" as="geometry" />
        </mxCell>
        <mxCell id="0xJOyOxBKtc-3IhlMfEm-3" value="批量处理发货调用中台履约发货" style="rounded=0;whiteSpace=wrap;html=1;" vertex="1" parent="1">
          <mxGeometry x="320" y="320" width="120" height="60" as="geometry" />
        </mxCell>
        <mxCell id="0xJOyOxBKtc-3IhlMfEm-11" value="" style="edgeStyle=orthogonalEdgeStyle;rounded=0;orthogonalLoop=1;jettySize=auto;html=1;" edge="1" parent="1" source="0xJOyOxBKtc-3IhlMfEm-4" target="0xJOyOxBKtc-3IhlMfEm-5">
          <mxGeometry relative="1" as="geometry" />
        </mxCell>
        <mxCell id="0xJOyOxBKtc-3IhlMfEm-4" value="处理成功和失败的数据redis" style="rounded=0;whiteSpace=wrap;html=1;" vertex="1" parent="1">
          <mxGeometry x="320" y="440" width="120" height="60" as="geometry" />
        </mxCell>
        <mxCell id="0xJOyOxBKtc-3IhlMfEm-12" value="" style="edgeStyle=orthogonalEdgeStyle;rounded=0;orthogonalLoop=1;jettySize=auto;html=1;" edge="1" parent="1" source="0xJOyOxBKtc-3IhlMfEm-5" target="0xJOyOxBKtc-3IhlMfEm-6">
          <mxGeometry relative="1" as="geometry" />
        </mxCell>
        <mxCell id="0xJOyOxBKtc-3IhlMfEm-5" value="生成excel" style="rounded=0;whiteSpace=wrap;html=1;" vertex="1" parent="1">
          <mxGeometry x="320" y="560" width="120" height="60" as="geometry" />
        </mxCell>
        <mxCell id="0xJOyOxBKtc-3IhlMfEm-13" value="" style="edgeStyle=orthogonalEdgeStyle;rounded=0;orthogonalLoop=1;jettySize=auto;html=1;" edge="1" parent="1" source="0xJOyOxBKtc-3IhlMfEm-6" target="0xJOyOxBKtc-3IhlMfEm-7">
          <mxGeometry relative="1" as="geometry" />
        </mxCell>
        <mxCell id="0xJOyOxBKtc-3IhlMfEm-6" value="入库" style="rounded=0;whiteSpace=wrap;html=1;" vertex="1" parent="1">
          <mxGeometry x="320" y="680" width="120" height="60" as="geometry" />
        </mxCell>
        <mxCell id="0xJOyOxBKtc-3IhlMfEm-7" value="end" style="ellipse;whiteSpace=wrap;html=1;" vertex="1" parent="1">
          <mxGeometry x="332.5" y="810" width="95" height="70" as="geometry" />
        </mxCell>
      </root>
    </mxGraphModel>
  </diagram>
</mxfile>
